<svg width="83" height="75" viewBox="0 0 83 75" fill="none" xmlns="http://www.w3.org/2000/svg">
<path fill-rule="evenodd" clip-rule="evenodd" d="M41.374 49.0327C40.0753 49.0327 38.9066 48.6438 37.7378 47.9956C32.8029 45.0139 30.0757 28.1609 20.9851 32.8279C17.7385 34.5132 9.94658 49.5513 7.9986 53.0516C6.57008 55.6443 0.726134 64.7191 0.206673 66.9229C-1.48158 74.0531 7.609 77.8126 11.6348 72.4974C14.1023 69.1268 17.4788 61.2188 20.0761 59.2742C22.6734 57.4593 26.8291 58.1075 28.6472 59.9224C29.816 61.0892 31.764 64.9783 32.8029 66.7933C33.9717 68.7379 35.6599 71.9788 36.9586 73.2752C38.1274 74.3123 39.6858 74.9605 41.374 74.9605C43.0623 74.9605 44.6206 74.3123 45.7894 73.2752C47.0881 71.9788 48.7763 68.7379 49.9451 66.7933C50.984 64.9783 53.0619 61.0892 54.1008 59.9224C55.9189 58.1075 60.0746 57.4593 62.6719 59.2742C65.2692 61.2188 68.6457 69.1268 71.1132 72.4974C75.139 77.8126 84.2296 74.0531 82.5413 66.9229C82.0219 64.5894 76.1779 55.6443 74.7494 53.0516C72.8014 49.5513 65.0095 34.5132 61.7629 32.8279C52.6723 28.1609 49.9451 45.0139 45.1401 47.9956C43.8414 48.7735 42.5428 49.0327 41.374 49.0327Z" fill="#001732"/>
<path fill-rule="evenodd" clip-rule="evenodd" d="M31.3747 9.75215C27.4787 15.9748 23.4529 22.9753 33.3227 24.4013C37.9978 25.1792 44.621 24.7903 48.5169 24.531C59.6854 23.6235 55.1401 16.1045 50.9844 9.75215C41.7639 -4.63776 38.3874 -1.78571 31.3747 9.75215Z" fill="#FF6A3D"/>
</svg>
