<svg width="24" height="24" viewBox="0 0 24 24" fill="none" xmlns="http://www.w3.org/2000/svg">
<g clip-path="url(#clip0_52_20)">
<path d="M0 20.9054C0 22.6147 1.38549 24 3.09457 24H20.9054C22.6147 24 24 22.6145 24 20.9054V3.09457C24 1.3853 22.6145 0 20.9054 0H3.09457C1.3853 0 0 1.38549 0 3.09457V20.9054Z" fill="#563D7C"/>
<path d="M9.95227 10.6161V7.21731H12.944C13.2289 7.21731 13.5037 7.24105 13.7682 7.28854C14.0328 7.33603 14.2669 7.42082 14.4704 7.54294C14.6739 7.66505 14.8367 7.83465 14.9588 8.05173C15.0809 8.26882 15.142 8.54696 15.142 8.88616C15.142 9.49672 14.9588 9.93767 14.5925 10.209C14.2262 10.4804 13.7581 10.6161 13.1882 10.6161H9.95227ZM6.75702 4.73438V19.2656H13.7988C14.45 19.2656 15.0843 19.1842 15.7017 19.0214C16.319 18.8586 16.8685 18.6076 17.3502 18.2684C17.8318 17.9292 18.2151 17.4916 18.5001 16.9557C18.785 16.4197 18.9274 15.7855 18.9274 15.0528C18.9274 14.1437 18.707 13.367 18.266 12.7225C17.8251 12.078 17.1568 11.6269 16.2614 11.3691C16.9126 11.057 17.4044 10.6568 17.7369 10.1683C18.0693 9.67988 18.2355 9.06933 18.2355 8.33666C18.2355 7.65826 18.1236 7.08841 17.8997 6.6271C17.6758 6.16579 17.3604 5.79607 16.9533 5.51792C16.5463 5.23978 16.0578 5.03965 15.488 4.91754C14.9181 4.79543 14.2872 4.73438 13.5953 4.73438H6.75702ZM9.95227 16.7827V12.7937H13.4324C14.1244 12.7937 14.6807 12.9531 15.1013 13.272C15.5219 13.5908 15.7322 14.1234 15.7322 14.8696C15.7322 15.2495 15.6678 15.5616 15.5389 15.8058C15.41 16.05 15.237 16.2434 15.0199 16.3858C14.8028 16.5283 14.5518 16.6301 14.2669 16.6911C13.9819 16.7522 13.6834 16.7827 13.3714 16.7827H9.95227Z" fill="white"/>
</g>
<defs>
<clipPath id="clip0_52_20">
<rect width="24" height="24" fill="white"/>
</clipPath>
</defs>
</svg>
