<svg width="146" height="146" viewBox="0 0 146 146" fill="none" xmlns="http://www.w3.org/2000/svg">
<circle cx="73" cy="73" r="72.5" stroke="#001732"/>
<path d="M62.0789 18L61.4861 18.1484L63.0033 24.2044L62.9847 24.209L59.7542 18.5821L59.1985 18.7213L59.0022 25.2063L58.9837 25.211L57.4666 19.155L56.8738 19.3035L58.5301 25.915L59.5026 25.6715L59.6249 19.4018L59.6434 19.3972L62.7072 24.869L63.7352 24.6115L62.0789 18Z" fill="#001732"/>
<path d="M51.9078 22.9241C51.6659 22.0647 51.8515 21.5274 52.4098 21.3035C52.9326 21.0938 53.5782 21.3183 54.122 22.6739L54.2109 22.8954L51.6411 23.9259L51.7193 24.1209C52.3484 25.689 53.106 26.2183 54.1516 25.799C55.1884 25.3832 55.4427 24.3247 54.7887 22.6945C54.0778 20.9226 53.2157 20.466 52.2232 20.8641C51.3371 21.2194 51.0542 22.1042 51.3761 23.1374L51.9078 22.9241ZM54.3886 23.3384C54.8401 24.515 54.6828 25.0717 54.0271 25.3347C53.3713 25.5977 52.8728 25.3039 52.3859 24.1415L54.3886 23.3384Z" fill="#001732"/>
<path d="M47.7643 22.9698L47.2604 23.2424L48.8827 26.2396C49.2553 26.928 49.106 27.5949 48.5182 27.9129C48.006 28.1901 47.5905 28.0241 47.2587 27.4112L45.5138 24.1874L45.01 24.46L46.8322 27.8266C47.2866 28.6661 47.9393 28.7688 48.6194 28.4009C49.0729 28.1555 49.3868 27.6926 49.3707 27.061L49.3874 27.0519L49.7237 27.6732L50.1771 27.4278L47.7643 22.9698Z" fill="#001732"/>
<path d="M42.9224 27.1961C42.375 26.414 41.7149 26.3865 41.0812 26.8298C40.6588 27.1254 40.3998 27.6211 40.4881 28.2468L40.4725 28.2577L40.0674 27.679L39.645 27.9745L42.5517 32.1275L43.0211 31.7991L41.0668 29.007C40.6179 28.3657 40.6978 27.6806 41.2298 27.3084C41.7226 26.9636 42.1301 27.063 42.6009 27.7356L44.6482 30.6608L45.1176 30.3324L42.9224 27.1961Z" fill="#001732"/>
<path d="M23.2494 47.0945L22.9945 47.6497L28.6693 50.2545L28.6613 50.2718L22.2496 49.272L22.0106 49.7925L26.9484 54.0022L26.9404 54.0196L21.2656 51.4148L21.0107 51.97L27.2061 54.8138L27.6244 53.9029L22.8083 49.8856L22.8163 49.8682L29.0027 50.9012L29.4449 49.9382L23.2494 47.0945Z" fill="#001732"/>
<path d="M20.7298 58.1086C19.9077 57.7597 19.6046 57.2788 19.7791 56.7033C19.9425 56.1643 20.5215 55.8011 21.9195 56.2249L22.1479 56.2941L21.3446 58.9434L21.5457 59.0043C23.1629 59.4945 24.0498 59.2346 24.3767 58.1567C24.7008 57.0878 24.0339 56.2273 22.3526 55.7178C20.5252 55.1639 19.6297 55.5508 19.3195 56.5739C19.0425 57.4875 19.556 58.2616 20.5636 58.6567L20.7298 58.1086ZM22.6048 56.4326C23.8054 56.8164 24.1415 57.2874 23.9365 57.9634C23.7315 58.6394 23.1904 58.8445 21.9788 58.4972L22.6048 56.4326Z" fill="#001732"/>
<path d="M18.1734 61.3694L18.071 61.9329L21.4246 62.5423C22.1949 62.6823 22.6219 63.2159 22.5024 63.8733C22.3983 64.4462 22.0089 64.6666 21.3231 64.5419L17.7159 63.8864L17.6134 64.4499L21.3804 65.1345C22.3197 65.3052 22.8082 64.8603 22.9465 64.0996C23.0387 63.5924 22.8739 63.0579 22.3708 62.6754L22.3742 62.6567L23.0694 62.783L23.1616 62.2758L18.1734 61.3694Z" fill="#001732"/>
<path d="M18.4427 67.7899C17.49 67.7277 17.0556 68.2255 17.0052 68.997C16.9716 69.5114 17.1964 70.0235 17.7399 70.346L17.7386 70.3651L17.0336 70.319L17 70.8334L22.0591 71.1639L22.0964 70.5923L18.6951 70.3702C17.9139 70.3191 17.4293 69.8283 17.4716 69.1806C17.5108 68.5804 17.8433 68.3247 18.6626 68.3783L22.2259 68.611L22.2632 68.0395L18.4427 67.7899Z" fill="#001732"/>
<path d="M21.6645 95.5828L21.9383 96.129L27.5206 93.3317L27.5292 93.3488L22.7383 97.7249L22.9949 98.2369L29.3687 97.0184L29.3773 97.0355L23.7949 99.8328L24.0687 100.379L30.1632 97.3251L29.714 96.429L23.5666 97.6728L23.558 97.6558L28.2339 93.4762L27.759 92.5289L21.6645 95.5828Z" fill="#001732"/>
<path d="M28.6832 104.438C27.8967 104.861 27.3318 104.797 26.9919 104.3C26.6735 103.836 26.7523 103.157 27.9574 102.332L28.1544 102.197L29.7192 104.48L29.8925 104.362C31.2867 103.407 31.6387 102.553 31.002 101.623C30.3706 100.702 29.282 100.684 27.8326 101.676C26.2573 102.755 25.9991 103.696 26.6034 104.578C27.143 105.366 28.0683 105.449 29.007 104.91L28.6832 104.438ZM28.5482 101.927C29.5987 101.231 30.1765 101.263 30.5758 101.846C30.9751 102.428 30.7966 102.979 29.7677 103.707L28.5482 101.927Z" fill="#001732"/>
<path d="M29.6287 108.472L30.0044 108.904L32.5777 106.669C33.1688 106.156 33.8523 106.157 34.2906 106.661C34.6725 107.101 34.6009 107.542 34.0747 107.999L31.3067 110.403L31.6823 110.836L34.5729 108.325C35.2937 107.699 35.2521 107.04 34.7449 106.456C34.4068 106.067 33.8866 105.861 33.2735 106.015L33.261 106L33.7944 105.537L33.4563 105.148L29.6287 108.472Z" fill="#001732"/>
<path d="M34.8074 112.278C34.1629 112.982 34.2796 113.632 34.8502 114.154C35.2305 114.502 35.7708 114.647 36.3624 114.425L36.3765 114.438L35.8996 114.959L36.2799 115.307L39.7024 111.567L39.2798 111.181L36.9788 113.695C36.4503 114.273 35.7641 114.344 35.2851 113.905C34.8414 113.499 34.8498 113.08 35.4041 112.474L37.8146 109.84L37.392 109.454L34.8074 112.278Z" fill="#001732"/>
<path d="M58.511 127.15L59.1085 127.278L60.4176 121.174L60.4362 121.178L60.8542 127.652L61.4143 127.772L64.4505 122.038L64.4692 122.042L63.1601 128.147L63.7576 128.275L65.1868 121.61L64.2066 121.4L61.3318 126.974L61.3131 126.97L60.9764 120.708L59.9402 120.486L58.511 127.15Z" fill="#001732"/>
<path d="M69.8116 127.214C69.6497 128.092 69.2461 128.493 68.6463 128.448C68.0845 128.405 67.6041 127.919 67.7138 126.463L67.7318 126.225L70.4928 126.433L70.5086 126.223C70.6355 124.538 70.189 123.729 69.0655 123.645C67.9516 123.561 67.2565 124.399 67.1246 126.15C66.9812 128.054 67.5536 128.844 68.6199 128.924C69.572 128.996 70.2161 128.326 70.3828 127.257L69.8116 127.214ZM67.7676 125.749C67.8813 124.494 68.268 124.063 68.9725 124.116C69.6771 124.17 69.9949 124.653 69.9193 125.911L67.7676 125.749Z" fill="#001732"/>
<path d="M73.5507 129L74.1232 128.977L73.989 125.572C73.9581 124.79 74.3862 124.257 75.0541 124.231C75.636 124.208 75.9358 124.54 75.9632 125.236L76.1076 128.899L76.68 128.877L76.5292 125.052C76.4917 124.098 75.9511 123.718 75.1784 123.748C74.6632 123.769 74.1772 124.046 73.9132 124.62L73.8941 124.621L73.8663 123.915L73.3511 123.935L73.5507 129Z" fill="#001732"/>
<path d="M79.7603 127.341C79.9067 128.285 80.4871 128.6 81.2514 128.482C81.7608 128.403 82.2119 128.072 82.4086 127.471L82.4275 127.468L82.5358 128.166L83.0453 128.087L82.2679 123.079L81.7018 123.166L82.2245 126.534C82.3445 127.307 81.9707 127.887 81.3291 127.987C80.7347 128.079 80.4128 127.81 80.2869 126.999L79.7394 123.471L79.1733 123.559L79.7603 127.341Z" fill="#001732"/>
<path d="M106.193 118.154L106.667 117.768L102.722 112.929L102.737 112.917L108.051 116.641L108.495 116.279L105.92 110.324L105.934 110.312L109.879 115.151L110.353 114.765L106.046 109.482L105.269 110.115L107.82 115.844L107.805 115.856L102.708 112.201L101.887 112.871L106.193 118.154Z" fill="#001732"/>
<path d="M113.312 109.38C113.896 110.055 113.956 110.62 113.546 111.06C113.161 111.472 112.481 111.542 111.414 110.546L111.239 110.383L113.128 108.359L112.975 108.216C111.739 107.063 110.829 106.905 110.06 107.729C109.298 108.545 109.517 109.611 110.801 110.81C112.197 112.113 113.171 112.16 113.901 111.379C114.553 110.681 114.433 109.76 113.703 108.961L113.312 109.38ZM110.89 110.057C109.982 109.183 109.888 108.613 110.37 108.096C110.852 107.58 111.428 107.634 112.362 108.48L110.89 110.057Z" fill="#001732"/>
<path d="M117.045 107.58L117.385 107.119L114.644 105.094C114.014 104.629 113.866 103.961 114.263 103.424C114.61 102.956 115.056 102.93 115.617 103.344L118.565 105.522L118.906 105.062L115.827 102.787C115.059 102.219 114.424 102.403 113.965 103.025C113.658 103.44 113.57 103.992 113.853 104.557L113.842 104.572L113.274 104.153L112.967 104.567L117.045 107.58Z" fill="#001732"/>
<path d="M119.634 101.698C120.462 102.174 121.072 101.919 121.457 101.249C121.714 100.802 121.738 100.243 121.393 99.714L121.402 99.6974L122.015 100.05L122.272 99.6027L117.877 97.0759L117.591 97.5724L120.546 99.2712C121.225 99.6614 121.443 100.316 121.119 100.878C120.82 101.4 120.408 101.483 119.697 101.073L116.601 99.2936L116.315 99.7901L119.634 101.698Z" fill="#001732"/>
<path d="M129 75.3328L128.995 74.7219L122.751 74.7716L122.751 74.7525L128.981 72.9369L128.976 72.3642L122.718 70.6479L122.718 70.6288L128.962 70.5791L128.957 69.9682L122.14 70.0224L122.148 71.0247L128.215 72.6184L128.215 72.6375L122.175 74.3275L122.183 75.3871L129 75.3328Z" fill="#001732"/>
<path d="M126.606 64.2908C127.498 64.2579 127.977 64.5647 128.063 65.1598C128.144 65.7172 127.774 66.2917 126.328 66.5013L126.092 66.5356L125.695 63.7959L125.487 63.826C123.814 64.0685 123.121 64.6802 123.283 65.7949C123.443 66.9002 124.413 67.3963 126.151 67.1443C128.041 66.8703 128.688 66.14 128.534 65.0819C128.397 64.1372 127.604 63.6542 126.523 63.724L126.606 64.2908ZM125.619 66.6041C124.369 66.766 123.865 66.4822 123.764 65.7831C123.662 65.084 124.065 64.6687 125.31 64.469L125.619 66.6041Z" fill="#001732"/>
<path d="M127.536 60.2535L127.39 59.6998L124.094 60.5712C123.337 60.7713 122.724 60.4693 122.553 59.8233C122.404 59.2604 122.663 58.8957 123.337 58.7175L126.882 57.7803L126.735 57.2265L123.034 58.2053C122.111 58.4494 121.857 59.0594 122.055 59.807C122.187 60.3053 122.563 60.7193 123.181 60.8521L123.186 60.8706L122.503 61.0512L122.635 61.5496L127.536 60.2535Z" fill="#001732"/>
<path d="M124.566 54.5543C125.456 54.2063 125.638 53.5713 125.356 52.8513C125.168 52.3712 124.747 52.003 124.118 51.9416L124.111 51.9238L124.769 51.6663L124.581 51.1863L119.86 53.034L120.069 53.5673L123.243 52.3251C123.972 52.0398 124.619 52.2786 124.855 52.883C125.075 53.443 124.882 53.8156 124.118 54.1149L120.792 55.4163L121.001 55.9496L124.566 54.5543Z" fill="#001732"/>
<path d="M109.85 30.7563L109.371 30.378L105.504 35.2797L105.489 35.2679L107.969 29.2725L107.519 28.9178L102.265 32.7258L102.25 32.714L106.117 27.8123L105.637 27.4339L101.416 32.7853L102.203 33.4061L107.241 29.6711L107.256 29.6829L104.797 35.4515L105.629 36.1078L109.85 30.7563Z" fill="#001732"/>
<path d="M99.7361 25.7169C100.269 25.0001 100.807 24.8187 101.326 25.1236C101.811 25.4092 102.028 26.0573 101.287 27.3161L101.166 27.5218L98.7799 26.118L98.6734 26.299C97.8164 27.7553 97.8604 28.6783 98.8315 29.2495C99.7943 29.8159 100.788 29.3702 101.679 27.8563C102.647 26.2108 102.481 25.2496 101.56 24.7074C100.737 24.2234 99.8635 24.5403 99.2423 25.4264L99.7361 25.7169ZM100.924 27.9332C100.269 29.0096 99.7319 29.2254 99.1229 28.8672C98.514 28.5089 98.4419 27.9349 99.0645 26.8392L100.924 27.9332Z" fill="#001732"/>
<path d="M97.1675 22.4658L96.6438 22.2337L95.2625 25.3492C94.9452 26.0648 94.326 26.3542 93.715 26.0834C93.1826 25.8474 93.06 25.4172 93.3425 24.7801L94.8282 21.429L94.3045 21.1969L92.753 24.6964C92.366 25.5691 92.6836 26.1484 93.3906 26.4617C93.862 26.6706 94.4203 26.6362 94.9105 26.2373L94.9279 26.2451L94.6416 26.8909L95.1129 27.0998L97.1675 22.4658Z" fill="#001732"/>
<path d="M90.8626 21.2171C91.1472 20.3059 90.7655 19.7667 90.0273 19.5362C89.5351 19.3825 88.9844 19.4806 88.543 19.9328L88.5248 19.9271L88.7354 19.2528L88.2433 19.0992L86.732 23.9376L87.2788 24.1083L88.2949 20.8554C88.5283 20.1082 89.1194 19.7527 89.7391 19.9462C90.3133 20.1255 90.4837 20.5087 90.2389 21.2924L89.1744 24.7002L89.7213 24.871L90.8626 21.2171Z" fill="#001732"/>
<path d="M73 92.25C67.8946 92.25 62.9983 90.2219 59.3882 86.6118C55.7781 83.0017 53.75 78.1054 53.75 73C53.75 67.8946 55.7781 62.9983 59.3882 59.3882C62.9983 55.7781 67.8946 53.75 73 53.75C78.1054 53.75 83.0017 55.7781 86.6118 59.3882C90.2219 62.9983 92.25 67.8946 92.25 73C92.25 78.1054 90.2219 83.0017 86.6118 86.6118C83.0017 90.2219 78.1054 92.25 73 92.25ZM73 95C78.8348 95 84.4306 92.6822 88.5564 88.5564C92.6822 84.4306 95 78.8348 95 73C95 67.1652 92.6822 61.5695 88.5564 57.4437C84.4306 53.3179 78.8348 51 73 51C67.1652 51 61.5695 53.3179 57.4437 57.4437C53.3179 61.5695 51 67.1652 51 73C51 78.8348 53.3179 84.4306 57.4437 88.5564C61.5695 92.6822 67.1652 95 73 95V95Z" fill="#FF6A3D"/>
<path d="M62.7837 77.3093C63.0996 77.1269 63.4749 77.0775 63.8271 77.1719C64.1793 77.2663 64.4797 77.4967 64.662 77.8125C65.5065 79.2764 66.7219 80.492 68.1856 81.3369C69.6494 82.1817 71.3099 82.626 73 82.625C74.6901 82.626 76.3506 82.1817 77.8143 81.3369C79.2781 80.492 80.4934 79.2764 81.338 77.8125C81.4276 77.6549 81.5475 77.5165 81.6909 77.4054C81.8342 77.2943 81.998 77.2126 82.173 77.1651C82.348 77.1176 82.5307 77.1052 82.7105 77.1286C82.8904 77.1519 83.0638 77.2107 83.2208 77.3013C83.3779 77.392 83.5154 77.5128 83.6256 77.6569C83.7357 77.8009 83.8163 77.9653 83.8626 78.1406C83.909 78.316 83.9202 78.4987 83.8956 78.6784C83.8711 78.858 83.8112 79.0311 83.7195 79.1875C82.6336 81.0695 81.0711 82.6322 79.1893 83.7184C77.3075 84.8046 75.1728 85.376 73 85.375C70.8272 85.376 68.6925 84.8046 66.8107 83.7184C64.9289 82.6322 63.3664 81.0695 62.2805 79.1875C62.0982 78.8717 62.0488 78.4964 62.1431 78.1442C62.2375 77.7919 62.4679 77.4916 62.7837 77.3093ZM70.25 68.875C70.25 71.152 69.018 73 67.5 73C65.982 73 64.75 71.152 64.75 68.875C64.75 66.598 65.982 64.75 67.5 64.75C69.018 64.75 70.25 66.598 70.25 68.875ZM81.25 68.875C81.25 71.152 80.018 73 78.5 73C76.982 73 75.75 71.152 75.75 68.875C75.75 66.598 76.982 64.75 78.5 64.75C80.018 64.75 81.25 66.598 81.25 68.875Z" fill="#FF6A3D"/>
</svg>
