<svg width="24" height="24" viewBox="0 0 24 24" fill="none" xmlns="http://www.w3.org/2000/svg">
<g clip-path="url(#clip0_52_11)">
<path d="M23.6233 5.41996C23.6319 5.4519 23.6364 5.48484 23.6364 5.51792V10.6605C23.6364 10.7948 23.5645 10.9189 23.448 10.9858L19.1317 13.4708V18.3963C19.1317 18.5304 19.0605 18.6541 18.9442 18.7216L9.93446 23.9082C9.91384 23.9199 9.89134 23.9274 9.86884 23.9354C9.8604 23.9382 9.85244 23.9434 9.84353 23.9457C9.78055 23.9623 9.71435 23.9623 9.65137 23.9457C9.64106 23.9429 9.63168 23.9373 9.62184 23.9335C9.60122 23.926 9.57966 23.9195 9.55997 23.9082L0.552064 18.7216C0.43559 18.6547 0.363647 18.5307 0.363647 18.3963V2.96867C0.363647 2.93493 0.368334 2.90212 0.376771 2.87025C0.379583 2.85947 0.386145 2.84962 0.389895 2.83884C0.396925 2.81916 0.403487 2.799 0.413798 2.78072C0.420829 2.76854 0.43114 2.7587 0.439577 2.74745C0.450357 2.73245 0.460199 2.71698 0.472854 2.70386C0.483634 2.69308 0.497695 2.68511 0.509881 2.67574C0.523473 2.66449 0.53566 2.6523 0.551127 2.6434H0.551595L5.05578 0.0500903C5.17185 -0.0166968 5.31468 -0.0166968 5.43074 0.0500903L9.93493 2.6434H9.93587C9.95086 2.65277 9.96352 2.66449 9.97711 2.67527C9.9893 2.68464 10.0029 2.69308 10.0137 2.70339C10.0268 2.71698 10.0362 2.73245 10.0474 2.74745C10.0554 2.7587 10.0662 2.76854 10.0727 2.78072C10.0835 2.79947 10.0896 2.81916 10.0971 2.83884C10.1008 2.84962 10.1074 2.85947 10.1102 2.87071C10.1189 2.90265 10.1233 2.93559 10.1233 2.96867V12.6046L13.8767 10.4435V5.51745C13.8767 5.48464 13.8814 5.45137 13.8898 5.41996C13.8931 5.40871 13.8992 5.39887 13.9029 5.38809C13.9104 5.36841 13.917 5.34825 13.9273 5.32997C13.9343 5.31779 13.9446 5.30794 13.9526 5.2967C13.9639 5.2817 13.9732 5.26623 13.9864 5.25311C13.9971 5.24233 14.0107 5.23436 14.0229 5.22498C14.037 5.21374 14.0492 5.20155 14.0642 5.19264H14.0646L18.5693 2.59934C18.6853 2.53246 18.8282 2.53246 18.9442 2.59934L23.4484 5.19264C23.4644 5.20202 23.4765 5.21374 23.4906 5.22452C23.5023 5.23389 23.5159 5.24233 23.5267 5.25264C23.5398 5.26623 23.5492 5.2817 23.5604 5.2967C23.5689 5.30794 23.5792 5.31779 23.5858 5.32997C23.5965 5.34825 23.6026 5.36841 23.6101 5.38809C23.6143 5.39887 23.6204 5.40871 23.6233 5.41996ZM22.8855 10.4435V6.16707L21.3093 7.07447L19.1317 8.32823V12.6046L22.886 10.4435H22.8855ZM18.3813 18.1793V13.9001L16.2394 15.1234L10.1229 18.6143V22.9338L18.3813 18.1793ZM1.1145 3.61782V18.1793L9.37202 22.9333V18.6147L5.05813 16.1733L5.05672 16.1724L5.05484 16.1714C5.04032 16.163 5.02813 16.1508 5.01454 16.1405C5.00282 16.1311 4.98923 16.1236 4.97892 16.1133L4.97798 16.1119C4.96579 16.1002 4.95736 16.0857 4.94704 16.0725C4.93767 16.0599 4.92642 16.0491 4.91892 16.036L4.91845 16.0346C4.91002 16.0205 4.90486 16.0036 4.89877 15.9877C4.89268 15.9736 4.88471 15.9605 4.88096 15.9455V15.945C4.87627 15.9272 4.87533 15.9085 4.87346 15.8902C4.87158 15.8761 4.86783 15.8621 4.86783 15.848V15.8471V5.77899L2.69073 4.52475L1.1145 3.61829V3.61782ZM5.24373 0.808444L1.49087 2.96867L5.24279 5.1289L8.99519 2.9682L5.24279 0.808444H5.24373ZM7.19539 14.2901L9.37249 13.0368V3.61782L7.79626 4.52522L5.61869 5.77899V15.1979L7.19539 14.2901ZM18.7568 3.35769L15.0044 5.51792L18.7568 7.67815L22.5087 5.51745L18.7568 3.35769ZM18.3813 8.32823L16.2038 7.07447L14.6275 6.16707V10.4435L16.8046 11.6968L18.3813 12.6046V8.32823ZM9.74698 17.9651L15.2509 14.823L18.0022 13.2528L14.2526 11.094L9.9354 13.5795L6.00068 15.8447L9.74698 17.9651Z" fill="#FF2D20"/>
</g>
<defs>
<clipPath id="clip0_52_11">
<rect width="24" height="24" fill="white"/>
</clipPath>
</defs>
</svg>
