<svg width="656" height="744" viewBox="0 0 656 744" fill="none" xmlns="http://www.w3.org/2000/svg">
<path opacity="0.2" fill-rule="evenodd" clip-rule="evenodd" d="M322.673 5.73424C419.722 -9.47857 531.892 2.84587 597.287 76.0314C661.094 147.439 626.311 254.582 630.456 350.182C634.946 453.721 689.725 570.48 622.137 649.141C553.26 729.301 428.223 715.486 322.673 708.389C226.17 701.901 125.019 683.794 61.0007 611.413C-0.334649 542.066 -6.40444 441.881 5.84803 350.182C16.4615 270.75 68.3018 209.467 122.594 150.441C180.5 87.4863 238.095 18.9921 322.673 5.73424Z" fill="#FF6651"/>
<path fill-rule="evenodd" clip-rule="evenodd" d="M322.673 35.7342C419.722 20.5214 531.892 32.8459 597.287 106.031C661.094 177.439 626.311 284.582 630.456 380.182C634.946 483.721 689.725 600.48 622.137 679.141C553.26 759.301 428.223 745.486 322.673 738.389C226.17 731.901 125.019 713.794 61.0007 641.413C-0.334649 572.066 -6.40444 471.881 5.84803 380.182C16.4615 300.75 68.3018 239.467 122.594 180.441C180.5 117.486 238.095 48.9921 322.673 35.7342Z" fill="#001732"/>
<path fill-rule="evenodd" clip-rule="evenodd" d="M322.673 35.7342C419.722 20.5214 531.892 32.8459 597.287 106.031C661.094 177.439 626.311 284.582 630.456 380.182C634.946 483.721 689.725 600.48 622.137 679.141C553.26 759.301 428.223 745.486 322.673 738.389C226.17 731.901 125.019 713.794 61.0007 641.413C-0.334649 572.066 -6.40444 471.881 5.84803 380.182C16.4615 300.75 68.3018 239.467 122.594 180.441C180.5 117.486 238.095 48.9921 322.673 35.7342Z" fill="url(#paint0_linear_13_20)"/>
<defs>
<linearGradient id="paint0_linear_13_20" x1="328.155" y1="30" x2="328.155" y2="744" gradientUnits="userSpaceOnUse">
<stop stop-color="#FF6A3D"/>
<stop offset="1" stop-color="#FC4174" stop-opacity="0"/>
</linearGradient>
</defs>
</svg>
