<svg width="212" height="40" viewBox="0 0 212 40" fill="none" xmlns="http://www.w3.org/2000/svg">
<path fill-rule="evenodd" clip-rule="evenodd" d="M22.0661 26.1508C21.3735 26.1508 20.7502 25.9434 20.1268 25.5977C17.4949 24.0074 16.0404 15.0191 11.1921 17.5082C9.46054 18.407 5.30484 26.4274 4.26592 28.2942C3.50404 29.677 0.387272 34.5168 0.110225 35.6922C-0.790175 39.495 4.05813 41.5001 6.20524 38.6653C7.52121 36.8676 9.32201 32.65 10.7072 31.6129C12.0925 30.645 14.3088 30.9907 15.2785 31.9586C15.9019 32.5809 16.9408 34.6551 17.4949 35.6231C18.1182 36.6602 19.0186 38.3887 19.7113 39.0801C20.3346 39.6333 21.1657 39.979 22.0661 39.979C22.9665 39.979 23.7977 39.6333 24.421 39.0801C25.1137 38.3887 26.0141 36.6602 26.6374 35.6231C27.1915 34.6551 28.2997 32.5809 28.8538 31.9586C29.8234 30.9907 32.0398 30.645 33.425 31.6129C34.8103 32.65 36.6111 36.8676 37.927 38.6653C40.0741 41.5001 44.9225 39.495 44.0221 35.6922C43.745 34.4477 40.6282 29.677 39.8664 28.2942C38.8274 26.4274 34.6717 18.407 32.9402 17.5082C28.0919 15.0191 26.6374 24.0074 24.0747 25.5977C23.3821 26.0125 22.6895 26.1508 22.0661 26.1508Z" fill="#001732"/>
<path fill-rule="evenodd" clip-rule="evenodd" d="M16.7332 5.20115C14.6553 8.51991 12.5082 12.2535 17.7721 13.0141C20.2655 13.4289 23.7979 13.2215 25.8757 13.0832C31.8322 12.5992 29.408 8.58905 27.1917 5.20115C22.2741 -2.47347 20.4733 -0.952378 16.7332 5.20115Z" fill="#FF6A3D"/>
<path fill-rule="evenodd" clip-rule="evenodd" d="M137.179 16.8168C137.179 15.9871 137.11 15.2957 137.04 14.7426C136.902 14.1894 136.763 13.7746 136.556 13.4289C136.348 13.0832 136.14 12.8758 135.932 12.7375C135.655 12.5992 135.447 12.5301 135.17 12.5301C134.893 12.5301 134.616 12.5992 134.408 12.7375C134.131 12.8758 133.924 13.0832 133.785 13.4289C133.577 13.7746 133.439 14.1894 133.3 14.7426C133.162 15.2957 133.162 15.9871 133.162 16.8168H137.179ZM139.395 18.2687H133.023C133.023 19.0984 133.092 19.7207 133.231 20.2738C133.369 20.827 133.577 21.2418 133.854 21.5184C134.131 21.8641 134.478 22.0715 134.893 22.2098C135.309 22.3481 135.863 22.4172 136.486 22.4172H138.91V23.3852C138.564 23.5234 138.079 23.6617 137.525 23.7309C136.971 23.8 136.486 23.8691 136.001 23.8691C135.101 23.8691 134.339 23.8 133.647 23.5926C133.023 23.3852 132.469 23.0395 132.054 22.5555C131.638 22.0715 131.361 21.4492 131.153 20.6195C130.945 19.7898 130.876 18.8219 130.876 17.5773C130.876 16.3328 130.945 15.3648 131.153 14.5351C131.361 13.7055 131.569 13.0832 131.984 12.5992C132.331 12.1152 132.815 11.7695 133.3 11.5621C133.854 11.3547 134.478 11.2855 135.17 11.2855C135.863 11.2855 136.486 11.3547 137.04 11.5621C137.594 11.7695 138.01 12.1152 138.356 12.5992C138.703 13.0832 138.98 13.7055 139.187 14.5351C139.395 15.3648 139.465 16.3328 139.465 17.5773V18.2687H139.395ZM123.188 23.5926L119.863 11.4238H121.941L124.712 21.5184H124.781L127.552 11.4238H129.629L126.374 23.5926H123.188ZM117.786 9.76443H115.569V7.06794H117.786V9.76443ZM117.786 23.5926H115.569V11.4238H117.786V23.5926ZM109.682 13.2906V19.7207C109.682 20.2738 109.751 20.6887 109.821 21.0344C109.959 21.3801 110.098 21.6566 110.236 21.8641C110.375 22.0715 110.582 22.2098 110.79 22.2789C110.998 22.3481 111.206 22.4172 111.344 22.4172H113.561V23.3852C113.422 23.4543 113.214 23.5234 113.007 23.5926C112.799 23.6617 112.522 23.7309 112.245 23.7309C111.968 23.8 111.76 23.8 111.483 23.8691C111.206 23.8691 110.998 23.9383 110.859 23.9383C110.375 23.9383 109.89 23.8691 109.544 23.8C109.128 23.6617 108.782 23.4543 108.435 23.1777C108.158 22.9012 107.881 22.4863 107.743 21.9332C107.604 21.3801 107.466 20.6887 107.466 19.859V13.4289H106.011V11.8387H107.466V8.79646H109.682V11.7004H113.076V12.8066C112.73 12.9449 112.245 13.0832 111.691 13.1523C111.137 13.2215 110.652 13.2906 110.167 13.2906H109.682ZM102.479 12.6683C101.994 12.6683 101.648 12.7375 101.301 12.8758C100.955 13.014 100.678 13.2906 100.401 13.6363C100.193 13.982 99.9854 14.466 99.8469 15.0883C99.7084 15.7105 99.6391 16.5402 99.6391 17.5082C99.6391 18.4762 99.7084 19.3059 99.8469 19.9281C99.9854 20.5504 100.124 21.0344 100.401 21.4492C100.678 21.7949 100.955 22.0715 101.371 22.2098C101.786 22.3481 102.202 22.4172 102.687 22.4172H105.111V23.3852C104.764 23.5234 104.28 23.6617 103.726 23.7309C103.171 23.8 102.687 23.8691 102.202 23.8691C101.371 23.8691 100.678 23.8 100.055 23.5926C99.4313 23.3852 98.9465 23.0395 98.6002 22.5555C98.1846 22.0715 97.9076 21.4492 97.769 20.6195C97.5613 19.7898 97.492 18.8219 97.492 17.5773C97.492 16.3328 97.5613 15.3648 97.769 14.5351C97.9768 13.7055 98.2539 13.0832 98.6002 12.5992C98.9465 12.1152 99.4313 11.7695 99.9854 11.5621C100.54 11.3547 101.232 11.2855 101.994 11.2855C102.479 11.2855 102.964 11.3547 103.518 11.4238C104.072 11.4929 104.487 11.6312 104.903 11.7695V12.7375H102.479V12.6683ZM90.1503 23.8691C89.5962 23.8691 89.1113 23.8 88.6265 23.7309C88.2109 23.6617 87.7954 23.4543 87.4491 23.1086C87.1027 22.832 86.895 22.4172 86.6872 21.9332C86.4794 21.4492 86.4101 20.7578 86.4101 19.9973C86.4101 19.2367 86.4794 18.6144 86.6872 18.1305C86.895 17.6465 87.1027 17.2316 87.4491 16.9551C87.7954 16.6785 88.1417 16.4711 88.6265 16.4019C89.0421 16.2637 89.5962 16.2637 90.1503 16.2637C90.4966 16.2637 90.9121 16.2637 91.397 16.3328C91.8125 16.4019 92.2281 16.4711 92.6437 16.4711V15.3648C92.6437 14.8117 92.5744 14.3969 92.4359 13.982C92.2974 13.6363 92.1589 13.3597 91.8818 13.1523C91.674 12.9449 91.397 12.8066 91.0507 12.7375C90.7043 12.6683 90.358 12.5992 89.9425 12.5992H87.5183V11.6312C87.8646 11.4929 88.3495 11.4238 88.9036 11.2855C89.4576 11.2164 89.9425 11.1472 90.4273 11.1472C91.1892 11.1472 91.8125 11.2164 92.3666 11.2855C92.9207 11.4238 93.3363 11.6312 93.7519 11.9078C94.0982 12.1844 94.3752 12.5992 94.583 13.1523C94.7908 13.7055 94.86 14.3969 94.86 15.2266V23.5234H93.0592L92.9207 22.7629H92.7822C92.5051 23.0395 92.0896 23.316 91.6048 23.4543C91.1199 23.8 90.6351 23.8691 90.1503 23.8691ZM92.5744 17.6465H90.8429C90.2195 17.6465 89.7347 17.7848 89.2499 18.1305C88.8343 18.4762 88.6265 19.0293 88.6265 19.9973C88.6265 20.4813 88.6958 20.8961 88.765 21.1727C88.9036 21.5184 89.0421 21.7258 89.2499 21.9332C89.4576 22.1406 89.6654 22.2098 89.9425 22.2789C90.2195 22.3481 90.4966 22.4172 90.7736 22.4172C91.0507 22.4172 91.397 22.3481 91.7433 22.2789C92.0896 22.2098 92.2974 22.0715 92.5052 21.9332V17.6465H92.5744ZM81.2848 23.5926H79.0684V11.4238H80.9385L81.077 12.3918H81.2155C81.4926 12.1844 81.9081 11.9078 82.393 11.7004C82.8778 11.4929 83.5012 11.4238 84.263 11.4238H85.5097V13.2215H83.0856C82.8085 13.2215 82.4622 13.2906 82.1852 13.3597C81.9081 13.4289 81.6311 13.5672 81.354 13.7055V23.5926H81.2848ZM73.2504 13.2906V19.7207C73.2504 20.2738 73.3197 20.6887 73.389 21.0344C73.5275 21.3801 73.666 21.6566 73.8045 21.8641C73.9431 22.0715 74.1508 22.2098 74.3586 22.2789C74.5664 22.3481 74.7742 22.4172 74.9127 22.4172H77.1291V23.3852C76.9906 23.4543 76.7828 23.5234 76.575 23.5926C76.3672 23.6617 76.0902 23.7309 75.8131 23.7309C75.5361 23.8 75.3283 23.8 75.0512 23.8691C74.8435 23.8691 74.5664 23.9383 74.4279 23.9383C73.9431 23.9383 73.4582 23.8691 73.0427 23.8C72.6271 23.6617 72.2808 23.4543 71.9345 23.1777C71.6574 22.9012 71.3804 22.4863 71.2419 21.9332C71.1033 21.3801 70.9648 20.6887 70.9648 19.859V13.4289H69.5103V11.8387H70.9648V8.79646H73.1812V11.7004H76.575V12.8066C76.2287 12.9449 75.7439 13.0832 75.1898 13.1523C74.6357 13.2215 74.1508 13.2906 73.666 13.2906H73.2504ZM64.8698 13.2906V19.7207C64.8698 20.2738 64.9391 20.6887 65.0083 21.0344C65.1468 21.3801 65.2854 21.6566 65.4239 21.8641C65.5624 22.0715 65.7702 22.2098 65.978 22.2789C66.1858 22.3481 66.3935 22.4172 66.5321 22.4172H68.7484V23.3852C68.6099 23.4543 68.4021 23.5234 68.1943 23.5926C67.9866 23.6617 67.7095 23.7309 67.4325 23.7309C67.1554 23.8 66.9476 23.8 66.6706 23.8691C66.3935 23.8691 66.1858 23.9383 66.0472 23.9383C65.5624 23.9383 65.0776 23.8691 64.662 23.8C64.2464 23.6617 63.9001 23.4543 63.5538 23.1777C63.2768 22.9012 62.9997 22.4863 62.8612 21.9332C62.7227 21.3801 62.5842 20.6887 62.5842 19.859V13.4289H61.1297V11.8387H62.5842V8.79646H64.8005V11.7004H68.1943V12.8066C67.848 12.9449 67.3632 13.0832 66.8091 13.1523C66.255 13.2215 65.7702 13.2906 65.2854 13.2906H64.8698ZM54.5498 9.00388H54.4805L52.472 17.5082H56.6277L54.5498 9.00388ZM52.0564 19.2367L50.9482 23.5926H48.7318L52.8875 6.58395H56.0736L60.2293 23.5926H58.0129L56.9047 19.2367H52.0564Z" fill="#FF6A3D"/>
<path fill-rule="evenodd" clip-rule="evenodd" d="M211.843 12.9449L206.371 22.0715H211.704V23.6617H203.808V22.2098L209.28 13.0832H204.016V11.4929H211.843V12.9449ZM197.09 23.8691C196.536 23.8691 196.051 23.8 195.566 23.7309C195.151 23.6617 194.735 23.4543 194.389 23.1086C194.042 22.832 193.835 22.4172 193.627 21.9332C193.419 21.4492 193.35 20.7578 193.35 19.9973C193.35 19.2367 193.419 18.6144 193.627 18.1305C193.835 17.6465 194.042 17.2316 194.389 16.9551C194.735 16.6785 195.081 16.4711 195.566 16.4019C195.982 16.2637 196.536 16.2637 197.09 16.2637C197.436 16.2637 197.852 16.2637 198.337 16.3328C198.752 16.4019 199.168 16.4711 199.583 16.4711V15.3648C199.583 14.8117 199.514 14.3969 199.376 13.982C199.237 13.6363 199.099 13.3597 198.822 13.1523C198.614 12.9449 198.337 12.8066 197.99 12.7375C197.644 12.6683 197.298 12.5992 196.882 12.5992H194.458V11.6312C194.804 11.4929 195.289 11.4238 195.843 11.2855C196.397 11.2164 196.882 11.1472 197.367 11.1472C198.129 11.1472 198.752 11.2164 199.306 11.2855C199.86 11.4238 200.276 11.6312 200.692 11.9078C201.038 12.1844 201.315 12.5992 201.523 13.1523C201.731 13.7055 201.8 14.3969 201.8 15.2265V23.5234H199.999L199.86 22.7629H199.722C199.445 23.0395 199.029 23.316 198.544 23.4543C198.06 23.8 197.575 23.8691 197.09 23.8691ZM199.514 17.6465H197.783C197.159 17.6465 196.674 17.7848 196.19 18.1305C195.774 18.4762 195.566 19.0293 195.566 19.9973C195.566 20.4812 195.636 20.8961 195.705 21.1727C195.843 21.5184 195.982 21.7258 196.19 21.9332C196.397 22.1406 196.605 22.2098 196.882 22.2789C197.159 22.348 197.436 22.4172 197.713 22.4172C197.99 22.4172 198.337 22.348 198.683 22.2789C199.029 22.2098 199.237 22.0715 199.445 21.9332V17.6465H199.514ZM190.649 9.76443H188.432V7.06794H190.649V9.76443ZM190.649 23.5926H188.432V11.4238H190.649V23.5926ZM182.822 13.1523C182.614 13.014 182.407 12.8758 182.06 12.8066C181.714 12.7375 181.437 12.6683 181.091 12.6683C180.675 12.6683 180.329 12.7375 180.052 12.8758C179.705 13.014 179.498 13.2906 179.221 13.6363C179.013 13.982 178.805 14.466 178.736 15.0883C178.597 15.7105 178.528 16.5402 178.528 17.5082C178.528 18.4762 178.597 19.3059 178.736 19.9281C178.874 20.5504 179.013 21.0344 179.221 21.4492C179.428 21.7949 179.705 22.0715 180.052 22.2098C180.398 22.3481 180.744 22.4172 181.091 22.4172C181.368 22.4172 181.714 22.348 182.06 22.2789C182.407 22.2098 182.614 22.0715 182.822 21.9332V13.1523ZM182.961 22.9012C182.684 23.1777 182.268 23.4543 181.783 23.5926C181.298 23.7309 180.883 23.8691 180.398 23.8691C179.775 23.8691 179.221 23.8 178.666 23.5926C178.182 23.3852 177.766 23.0395 177.42 22.5555C177.073 22.0715 176.796 21.4492 176.658 20.6195C176.45 19.7898 176.381 18.8219 176.381 17.5773C176.381 16.3328 176.45 15.3648 176.658 14.5351C176.866 13.7055 177.073 13.0832 177.42 12.5992C177.766 12.1152 178.182 11.7695 178.666 11.5621C179.151 11.3547 179.775 11.2855 180.398 11.2855C180.883 11.2855 181.298 11.3547 181.714 11.4238C182.06 11.5621 182.476 11.7004 182.822 11.8387V6.58395H185.038V23.5926H183.238L183.099 22.832H182.961V22.9012ZM172.017 16.8168C172.017 15.9871 171.948 15.2957 171.879 14.7426C171.74 14.1894 171.602 13.7746 171.463 13.4289C171.255 13.0832 171.048 12.8758 170.771 12.7375C170.494 12.5992 170.286 12.5301 170.009 12.5301C169.732 12.5301 169.455 12.5992 169.247 12.7375C168.97 12.8758 168.762 13.0832 168.623 13.4289C168.416 13.7746 168.277 14.1894 168.139 14.7426C168 15.2957 168 15.9871 168 16.8168H172.017ZM174.164 18.2687H167.862C167.862 19.0984 167.931 19.7207 168.069 20.2738C168.208 20.827 168.416 21.2418 168.693 21.5184C168.97 21.8641 169.316 22.0715 169.732 22.2098C170.147 22.3481 170.701 22.4172 171.325 22.4172H173.749V23.3852C173.403 23.5234 172.918 23.6617 172.364 23.7309C171.81 23.8 171.325 23.8691 170.84 23.8691C169.939 23.8691 169.178 23.8 168.485 23.5926C167.862 23.3852 167.308 23.0395 166.892 22.5555C166.476 22.0715 166.199 21.4492 165.992 20.6195C165.784 19.7898 165.715 18.8219 165.715 17.5773C165.715 16.3328 165.784 15.3648 165.992 14.5351C166.199 13.7055 166.407 13.0832 166.823 12.5992C167.169 12.1152 167.654 11.7695 168.139 11.5621C168.693 11.3547 169.316 11.2855 170.009 11.2855C170.701 11.2855 171.325 11.3547 171.879 11.5621C172.433 11.7695 172.848 12.1152 173.195 12.5992C173.541 13.0832 173.818 13.7055 174.026 14.5351C174.234 15.3648 174.303 16.3328 174.303 17.5773V18.2687H174.164ZM154.494 21.4492L150.962 11.009H150.823L150.061 23.6617H147.845L148.815 6.65309H151.516L155.464 18.3379H155.533L159.481 6.65309H162.182L163.152 23.6617H160.935L160.174 11.009H160.035L156.503 21.4492H154.494Z" fill="#001732"/>
<path opacity="0.8" fill-rule="evenodd" clip-rule="evenodd" d="M152.347 32.0278C152.347 32.2352 152.416 32.4426 152.555 32.5809C152.693 32.7192 152.901 32.8575 153.109 32.9266C153.317 33.0649 153.525 33.134 153.802 33.2032C154.079 33.2723 154.286 33.4106 154.494 33.5489C154.702 33.6872 154.91 33.8946 155.048 34.102C155.187 34.3094 155.256 34.586 155.256 35.0008C155.256 35.3465 155.187 35.6231 155.118 35.8305C155.048 36.0379 154.91 36.2454 154.702 36.3837C154.494 36.5219 154.286 36.5911 153.94 36.6602C153.663 36.7294 153.248 36.7294 152.832 36.7294C152.555 36.7294 152.347 36.7294 152.07 36.6602C151.793 36.5911 151.585 36.5219 151.377 36.5219V36.0379H152.555C153.109 36.0379 153.525 35.9688 153.732 35.8305C154.009 35.6922 154.079 35.4157 154.079 35.07C154.079 34.8626 154.009 34.6551 153.871 34.5168C153.732 34.3786 153.525 34.2403 153.317 34.1711C153.109 34.102 152.901 33.9637 152.624 33.8946C152.347 33.8254 152.139 33.6872 151.932 33.5489C151.724 33.4106 151.516 33.2032 151.377 32.9958C151.239 32.7883 151.17 32.5118 151.17 32.0969C151.17 31.4747 151.377 31.0598 151.724 30.8524C152.07 30.645 152.624 30.5067 153.386 30.5067C153.663 30.5067 153.871 30.5067 154.148 30.5758C154.425 30.645 154.633 30.7141 154.841 30.7141V31.1981H153.663C153.248 31.1981 152.901 31.2672 152.693 31.4055C152.486 31.5438 152.347 31.7512 152.347 32.0278ZM148.746 31.4747V34.6551C148.746 34.9317 148.746 35.1391 148.815 35.3465C148.884 35.554 148.953 35.6231 149.023 35.7614C149.092 35.8305 149.23 35.8997 149.3 35.9688C149.369 36.038 149.507 36.0379 149.577 36.0379H150.685V36.5219C150.616 36.5219 150.546 36.5911 150.408 36.5911C150.269 36.5911 150.2 36.6602 150.062 36.6602C149.923 36.6602 149.784 36.7294 149.715 36.7294C149.577 36.7294 149.507 36.7294 149.369 36.7294C149.092 36.7294 148.884 36.7294 148.676 36.6602C148.469 36.5911 148.261 36.5219 148.122 36.3837C147.984 36.2454 147.845 36.0379 147.776 35.7614C147.707 35.4848 147.637 35.1391 147.637 34.7243V31.5438H146.945V30.7833H147.637V29.3313H148.746V30.7833H150.408V31.3364C150.2 31.4055 149.992 31.4747 149.715 31.4747C149.438 31.5438 149.161 31.5438 148.953 31.5438H148.746V31.4747ZM142.789 36.6602H141.681V28.1559H142.789V30.7833C142.997 30.7141 143.205 30.645 143.412 30.5758C143.62 30.5067 143.897 30.5067 144.174 30.5067C144.451 30.5067 144.659 30.5067 144.867 30.5758C145.075 30.645 145.282 30.7141 145.421 30.8524C145.56 30.9907 145.698 31.1981 145.767 31.4055C145.837 31.6129 145.906 31.9586 145.906 32.3043V36.6602H144.798V32.3043C144.798 32.0969 144.798 31.8895 144.728 31.7512C144.659 31.6129 144.59 31.4747 144.521 31.4055C144.382 31.3364 144.313 31.2672 144.174 31.1981C144.036 31.1981 143.897 31.129 143.689 31.129C143.551 31.129 143.412 31.129 143.205 31.1981C143.066 31.2672 142.928 31.2672 142.858 31.3364V36.6602H142.789ZM138.98 31.1981H138.149C137.941 31.1981 137.802 31.2672 137.594 31.3364C137.456 31.4055 137.317 31.5438 137.179 31.6821C137.04 31.8895 136.971 32.0969 136.902 32.4426C136.833 32.7192 136.833 33.134 136.833 33.618C136.833 34.102 136.833 34.5168 136.902 34.7934C136.971 35.1391 137.04 35.3465 137.179 35.554C137.317 35.7614 137.456 35.8305 137.594 35.8997C137.733 35.9688 137.941 35.9688 138.149 35.9688C138.287 35.9688 138.426 35.9688 138.633 35.8997C138.772 35.8305 138.91 35.7614 138.98 35.7614V31.1981ZM138.98 36.4528C138.772 36.5219 138.633 36.5911 138.426 36.6602C138.218 36.7294 138.01 36.7294 137.802 36.7294C137.456 36.7294 137.179 36.6602 136.971 36.5911C136.694 36.5219 136.486 36.3145 136.348 36.1071C136.209 35.8997 136.071 35.554 135.932 35.1391C135.863 34.7243 135.794 34.2403 135.794 33.618C135.794 32.9958 135.863 32.5118 135.932 32.0969C136.001 31.6821 136.14 31.4055 136.348 31.129C136.556 30.9215 136.763 30.7141 137.11 30.645C137.387 30.5758 137.733 30.5067 138.149 30.5067C138.495 30.5067 138.841 30.5067 139.187 30.5758C139.465 30.645 139.811 30.7141 140.088 30.8524V36.1762C140.088 36.7294 140.019 37.2133 139.949 37.6282C139.88 38.043 139.742 38.3196 139.534 38.527C139.326 38.7344 139.049 38.9419 138.772 39.011C138.495 39.0801 138.079 39.1493 137.664 39.1493C137.456 39.1493 137.179 39.1493 136.902 39.0801C136.625 39.011 136.417 39.011 136.209 38.9419V38.4579H137.456C137.733 38.4579 137.941 38.4579 138.149 38.3887C138.356 38.3196 138.495 38.1813 138.633 38.043C138.772 37.9048 138.841 37.6973 138.91 37.4208C138.91 37.1442 138.98 36.7985 138.98 36.4528ZM133.3 30.5758H134.408V36.5911H133.508L133.439 36.2454H133.369C133.231 36.3836 133.023 36.5219 132.815 36.5911C132.608 36.6602 132.331 36.7294 132.123 36.7294C131.846 36.7294 131.569 36.7294 131.361 36.6602C131.153 36.5911 130.945 36.5219 130.807 36.3837C130.668 36.2454 130.53 36.0379 130.461 35.8305C130.391 35.6231 130.322 35.2774 130.322 34.9317V30.5758H131.43V34.9317C131.43 35.1391 131.43 35.3465 131.499 35.4848C131.569 35.6231 131.638 35.7614 131.776 35.8305C131.846 35.8997 131.984 35.9688 132.123 36.0379C132.261 36.0379 132.4 36.1071 132.608 36.1071C132.746 36.1071 132.954 36.1071 133.092 36.0379C133.231 35.9688 133.369 35.8997 133.439 35.8997V30.5758H133.3ZM128.937 33.618C128.937 34.2403 128.867 34.7243 128.798 35.1391C128.729 35.554 128.59 35.8997 128.383 36.1071C128.175 36.3837 127.967 36.5219 127.69 36.6602C127.413 36.7294 127.067 36.7985 126.72 36.7985C126.374 36.7985 126.028 36.7294 125.751 36.6602C125.474 36.5219 125.266 36.3837 125.058 36.1071C124.85 35.8305 124.712 35.554 124.643 35.1391C124.573 34.7243 124.504 34.2403 124.504 33.618C124.504 32.9958 124.573 32.5118 124.643 32.0969C124.712 31.6821 124.85 31.3364 125.058 31.129C125.266 30.8524 125.474 30.7141 125.751 30.5758C126.028 30.4375 126.374 30.4375 126.72 30.4375C127.067 30.4375 127.413 30.5067 127.69 30.5758C127.967 30.7141 128.175 30.8524 128.383 31.129C128.59 31.4055 128.729 31.6821 128.798 32.0969C128.867 32.5118 128.937 32.9958 128.937 33.618ZM127.829 33.618C127.829 33.134 127.829 32.7192 127.759 32.4426C127.69 32.0969 127.621 31.8895 127.482 31.6821C127.344 31.4747 127.274 31.3364 127.136 31.2672C126.997 31.1981 126.859 31.129 126.72 31.129C126.582 31.129 126.443 31.1981 126.305 31.2672C126.166 31.3364 126.028 31.4747 125.959 31.6821C125.82 31.8895 125.751 32.0969 125.681 32.4426C125.612 32.7883 125.612 33.134 125.612 33.618C125.612 34.102 125.612 34.5168 125.681 34.7934C125.751 35.1391 125.82 35.3465 125.959 35.554C126.028 35.7614 126.166 35.8997 126.305 35.9688C126.443 36.038 126.582 36.1071 126.72 36.1071C126.859 36.1071 126.997 36.038 127.136 35.9688C127.274 35.8997 127.413 35.7614 127.482 35.554C127.621 35.3465 127.69 35.1391 127.759 34.7934C127.759 34.5168 127.829 34.102 127.829 33.618ZM120.002 36.6602H118.894V28.1559H120.002V30.7833C120.21 30.7141 120.418 30.645 120.625 30.5758C120.833 30.5067 121.11 30.5067 121.387 30.5067C121.664 30.5067 121.872 30.5067 122.08 30.5758C122.288 30.645 122.495 30.7141 122.634 30.8524C122.772 30.9907 122.911 31.1981 122.98 31.4055C123.05 31.6129 123.119 31.9586 123.119 32.3043V36.6602H122.011V32.3043C122.011 32.0969 122.011 31.8895 121.941 31.7512C121.872 31.6129 121.803 31.4747 121.734 31.4055C121.595 31.3364 121.526 31.2672 121.387 31.1981C121.249 31.1981 121.11 31.129 120.902 31.129C120.764 31.129 120.625 31.129 120.418 31.1981C120.279 31.2672 120.141 31.2672 120.071 31.3364V36.6602H120.002ZM115.916 31.4747V34.6551C115.916 34.9317 115.916 35.1391 115.985 35.3465C116.054 35.554 116.123 35.6231 116.193 35.7614C116.262 35.8305 116.4 35.8997 116.47 35.9688C116.539 36.038 116.677 36.0379 116.747 36.0379H117.855V36.5219C117.786 36.5219 117.716 36.5911 117.578 36.5911C117.439 36.5911 117.37 36.6602 117.232 36.6602C117.093 36.6602 116.954 36.7294 116.885 36.7294C116.747 36.7294 116.677 36.7294 116.539 36.7294C116.331 36.7294 116.054 36.7294 115.846 36.6602C115.639 36.5911 115.431 36.5219 115.292 36.3837C115.154 36.2454 115.015 36.0379 114.946 35.7614C114.877 35.4848 114.807 35.1391 114.807 34.7243V31.5438H114.115V30.7833H114.807V29.3313H115.916V30.7833H117.647V31.3364C117.439 31.4055 117.232 31.4747 116.955 31.4747C116.677 31.5438 116.4 31.5438 116.193 31.5438H115.916V31.4747ZM108.643 36.6602H107.535V30.645H108.435L108.505 31.129H108.574C108.712 30.9907 108.92 30.9215 109.197 30.7833C109.474 30.7141 109.751 30.645 110.098 30.645H110.721V31.5438H109.544C109.405 31.5438 109.266 31.5438 109.128 31.6129C108.989 31.6821 108.851 31.6821 108.712 31.8204V36.6602H108.643ZM104.903 30.5758H106.011V36.5911H105.111L105.042 36.2454H104.972C104.834 36.3836 104.626 36.5219 104.418 36.5911C104.21 36.6602 103.933 36.7294 103.726 36.7294C103.448 36.7294 103.171 36.7294 102.964 36.6602C102.756 36.5911 102.548 36.5219 102.41 36.3837C102.271 36.2454 102.133 36.0379 102.063 35.8305C101.994 35.6231 101.925 35.2774 101.925 34.9317V30.5758H103.033V34.9317C103.033 35.1391 103.033 35.3465 103.102 35.4848C103.171 35.6231 103.241 35.7614 103.31 35.8305C103.449 35.8997 103.518 35.9688 103.656 36.0379C103.795 36.0379 103.933 36.1071 104.141 36.1071C104.28 36.1071 104.487 36.1071 104.626 36.0379C104.764 35.9688 104.903 35.8997 104.972 35.8997V30.5758H104.903ZM100.47 33.618C100.47 34.2403 100.401 34.7243 100.332 35.1391C100.262 35.554 100.124 35.8997 99.9162 36.1071C99.7084 36.3837 99.5006 36.5219 99.2235 36.6602C98.9465 36.7294 98.6002 36.7985 98.2539 36.7985C97.9076 36.7985 97.5613 36.7294 97.2842 36.6602C97.0072 36.5219 96.7994 36.3837 96.5916 36.1071C96.3838 35.8305 96.2453 35.554 96.176 35.1391C96.1068 34.7243 96.0375 34.2403 96.0375 33.618C96.0375 32.9958 96.1068 32.5118 96.176 32.0969C96.2453 31.6821 96.3838 31.3364 96.5916 31.129C96.7994 30.8524 97.0072 30.7141 97.2842 30.5758C97.5613 30.4375 97.9076 30.4375 98.2539 30.4375C98.6002 30.4375 98.9465 30.5067 99.2235 30.5758C99.5006 30.7141 99.7084 30.8524 99.9162 31.129C100.124 31.4055 100.262 31.6821 100.332 32.0969C100.47 32.5118 100.47 32.9958 100.47 33.618ZM99.4313 33.618C99.4313 33.134 99.4313 32.7192 99.3621 32.4426C99.2928 32.0969 99.2235 31.8895 99.085 31.6821C99.0158 31.4747 98.8772 31.3364 98.7387 31.2672C98.6002 31.1981 98.4617 31.129 98.3231 31.129C98.1846 31.129 98.0461 31.1981 97.9076 31.2672C97.7691 31.3364 97.6305 31.4747 97.5613 31.6821C97.4227 31.8895 97.3535 32.0969 97.2842 32.4426C97.215 32.7883 97.215 33.134 97.215 33.618C97.215 34.102 97.215 34.5168 97.2842 34.7934C97.3535 35.1391 97.4227 35.3465 97.5613 35.554C97.6998 35.7614 97.7691 35.8997 97.9076 35.9688C98.0461 36.038 98.1846 36.1071 98.3231 36.1071C98.4617 36.1071 98.6002 36.038 98.7387 35.9688C98.8772 35.8997 99.0158 35.7614 99.085 35.554C99.2235 35.3465 99.2928 35.1391 99.3621 34.7934C99.3621 34.5168 99.4313 34.102 99.4313 33.618ZM92.3666 36.7294C92.0896 36.7294 91.8125 36.7294 91.6048 36.6602C91.397 36.5911 91.1892 36.5219 91.0507 36.3837C90.9121 36.2454 90.7736 36.0379 90.7044 35.8305C90.6351 35.6231 90.5658 35.2774 90.5658 34.9317V30.5758H91.674V34.9317C91.674 35.1391 91.674 35.3465 91.7433 35.4848C91.8125 35.6231 91.8818 35.7614 91.9511 35.8305C92.0896 35.8997 92.1589 35.9688 92.2974 36.0379C92.4359 36.0379 92.5744 36.1071 92.7822 36.1071C92.9207 36.1071 93.0593 36.1071 93.2671 36.0379C93.4056 35.9688 93.5441 35.8997 93.6134 35.8997V30.7141H94.7215V36.2454C94.7215 36.7985 94.6523 37.2825 94.583 37.6973C94.5138 38.1122 94.3752 38.3887 94.1674 38.5962C93.9597 38.8036 93.6826 39.011 93.4056 39.0801C93.1285 39.1493 92.713 39.2184 92.2974 39.2184C92.0896 39.2184 91.8126 39.2184 91.5355 39.1493C91.2585 39.0801 91.0507 39.0801 90.8429 39.011V38.527H92.0203C92.2974 38.527 92.5052 38.527 92.713 38.4579C92.9207 38.3887 93.0593 38.2505 93.1978 38.1122C93.3363 37.9739 93.4056 37.7665 93.4748 37.4899C93.5441 37.2133 93.5441 36.9368 93.5441 36.5219C93.3363 36.5911 93.1978 36.6602 92.99 36.7294C92.8515 36.7294 92.6437 36.7294 92.3666 36.7294ZM82.9471 33.3415L81.9081 36.5911H80.5922L79.484 30.5758H80.5229L81.3541 35.1391H81.4233L82.5315 31.7512H83.5012L84.6094 35.1391H84.6786L85.5097 30.5758H86.5487L85.4405 36.5911H84.1245L82.9471 33.3415ZM76.2287 36.7294C75.9517 36.7294 75.6746 36.7294 75.4668 36.6602C75.259 36.5911 75.0513 36.5219 74.9127 36.3837C74.7742 36.2454 74.6357 36.0379 74.5664 35.7614C74.4972 35.4848 74.4279 35.2083 74.4279 34.7934C74.4279 34.3786 74.4972 34.102 74.5664 33.8254C74.6357 33.618 74.7742 33.4106 74.9127 33.2723C75.0513 33.134 75.259 33.0649 75.4668 32.9958C75.6746 32.9266 75.9517 32.9266 76.2287 32.9266C76.4365 32.9266 76.6443 32.9266 76.8521 32.9958C77.0598 32.9958 77.2676 33.0649 77.4754 33.0649V32.5118C77.4754 32.2352 77.4754 32.0278 77.4061 31.8204C77.3369 31.6129 77.2676 31.5438 77.1291 31.4055C76.9906 31.3364 76.8521 31.2672 76.7135 31.1981C76.575 31.129 76.3672 31.129 76.1594 31.129H74.8435V30.645C75.0513 30.5758 75.259 30.5067 75.5361 30.5067C75.8131 30.4375 76.0902 30.4375 76.298 30.4375C76.6443 30.4375 76.9906 30.4375 77.2676 30.5067C77.5447 30.5758 77.7525 30.645 77.9602 30.7833C78.168 30.9215 78.3066 31.129 78.3758 31.4055C78.4451 31.6821 78.5143 32.0278 78.5143 32.4426V36.5219H77.6139L77.5447 36.1762H77.4754C77.3369 36.3145 77.1291 36.4528 76.9213 36.5219C76.6443 36.7294 76.4365 36.7294 76.2287 36.7294ZM77.4061 33.6872H76.575C76.298 33.6872 76.0209 33.7563 75.8131 33.8946C75.6053 34.0329 75.4668 34.3786 75.4668 34.7934C75.4668 35.0008 75.4668 35.2083 75.5361 35.4157C75.6053 35.554 75.6746 35.6922 75.7439 35.7614C75.8131 35.8305 75.9517 35.8997 76.0902 35.9688C76.2287 36.038 76.3672 36.0379 76.5057 36.0379C76.6443 36.0379 76.8521 36.038 76.9906 35.9688C77.1291 35.8997 77.2676 35.8305 77.3369 35.8305V33.6872H77.4061ZM71.796 36.6602H70.6878V30.645H71.5882L71.6574 31.129H71.7267C71.8652 30.9907 72.073 30.9215 72.2808 30.7833C72.5578 30.7141 72.8349 30.645 73.1812 30.645H73.8045V31.5438H72.5578C72.4193 31.5438 72.2808 31.5438 72.1423 31.6129C72.0037 31.6821 71.8652 31.6821 71.7267 31.8204V36.6602H71.796ZM67.9866 31.4055C67.9173 31.3364 67.7788 31.2672 67.6403 31.2672C67.5017 31.1981 67.294 31.1981 67.1554 31.1981C66.9477 31.1981 66.8091 31.2672 66.6013 31.3364C66.4628 31.4055 66.3243 31.5438 66.1858 31.6821C66.0473 31.8895 65.978 32.0969 65.9087 32.4426C65.8395 32.7192 65.8395 33.134 65.8395 33.618C65.8395 34.102 65.8395 34.5168 65.9087 34.7934C65.978 35.1391 66.0473 35.3465 66.1858 35.554C66.3243 35.7614 66.3936 35.8305 66.6013 35.8997C66.7399 35.9688 66.9477 35.9688 67.1554 35.9688C67.294 35.9688 67.5017 35.9688 67.6403 35.8997C67.7788 35.8305 67.9173 35.7614 67.9866 35.7614V31.4055ZM68.0558 36.2454C67.9173 36.3836 67.7095 36.5219 67.5017 36.5911C67.294 36.6602 67.0169 36.7294 66.8091 36.7294C66.4628 36.7294 66.1858 36.6602 65.978 36.5911C65.7009 36.5219 65.4932 36.3145 65.3546 36.1071C65.2161 35.8997 65.0776 35.554 64.9391 35.1391C64.8698 34.7243 64.8005 34.2403 64.8005 33.618C64.8005 32.9958 64.8698 32.5118 64.9391 32.0969C65.0083 31.6821 65.1469 31.4055 65.3546 31.129C65.4932 30.9215 65.7009 30.7141 65.978 30.645C66.255 30.5758 66.5321 30.5067 66.8091 30.5067C67.0169 30.5067 67.294 30.5067 67.4325 30.5758C67.6403 30.645 67.7788 30.7141 67.9866 30.7833V28.1559H69.0948V36.5911H68.1944L68.0558 36.2454ZM59.5367 33.2723C59.5367 32.8575 59.5367 32.5118 59.4674 32.2352C59.3981 31.9586 59.3289 31.7512 59.2596 31.6129C59.1904 31.4747 59.0518 31.3364 58.9133 31.2672C58.7748 31.1981 58.6363 31.129 58.4977 31.129C58.3592 31.129 58.2207 31.1981 58.0822 31.2672C57.9437 31.3364 57.8744 31.4747 57.7359 31.6129C57.6666 31.7512 57.5973 31.9586 57.5281 32.2352C57.4588 32.5118 57.4588 32.8575 57.4588 33.2723H59.5367ZM60.6448 33.9637H57.4588C57.4588 34.3786 57.4588 34.6551 57.5281 34.9317C57.5973 35.2083 57.6666 35.4157 57.8051 35.554C57.9437 35.6922 58.0822 35.8305 58.3592 35.8997C58.567 35.9688 58.8441 35.9688 59.1211 35.9688H60.2985V36.4528C60.0908 36.5219 59.883 36.5911 59.6059 36.5911C59.3289 36.6602 59.0518 36.6602 58.8441 36.6602C58.3592 36.6602 58.0129 36.5911 57.6666 36.5219C57.3203 36.4528 57.1125 36.2454 56.9047 36.0379C56.6969 35.8305 56.5584 35.4848 56.4892 35.07C56.4199 34.6551 56.3506 34.1711 56.3506 33.5489C56.3506 32.9266 56.4199 32.4426 56.4892 32.0278C56.5584 31.6129 56.6969 31.3364 56.9047 31.0598C57.1125 30.8524 57.3203 30.645 57.5973 30.5758C57.8744 30.5067 58.1514 30.4375 58.4977 30.4375C58.8441 30.4375 59.1211 30.5067 59.3981 30.5758C59.6752 30.645 59.883 30.8524 60.0908 31.0598C60.2985 31.3364 60.3678 31.6129 60.5063 32.0278C60.5756 32.4426 60.6448 32.9266 60.6448 33.5489V33.9637ZM52.1257 33.3415L51.0868 36.5911H49.7708L48.6626 30.5758H49.7015L50.5327 35.1391H50.6019L51.7101 31.7512H52.6798L53.788 35.1391H53.8572L54.6884 30.5758H55.7273L54.6191 36.5911H53.3031L52.1257 33.3415Z" fill="#868686"/>
</svg>
