<svg width="24" height="24" viewBox="0 0 24 24" fill="none" xmlns="http://www.w3.org/2000/svg">
<path d="M12 17.5238C17.799 17.5238 22.5 15.0507 22.5 12C22.5 8.94932 17.799 6.47626 12 6.47626C6.20101 6.47626 1.5 8.94932 1.5 12C1.5 15.0507 6.20101 17.5238 12 17.5238Z" fill="url(#paint0_radial_52_2)"/>
<path d="M12 17.1135C17.5724 17.1135 22.0898 14.8241 22.0898 12C22.0898 9.1759 17.5724 6.88651 12 6.88651C6.42761 6.88651 1.91028 9.1759 1.91028 12C1.91028 14.8241 6.42761 17.1135 12 17.1135Z" fill="#6280B6"/>
<path d="M14.0437 13.65L14.544 11.0745C14.6153 10.8541 14.627 10.6187 14.578 10.3923C14.529 10.1659 14.421 9.95647 14.265 9.78524C13.8295 9.476 13.2962 9.33602 12.765 9.39149H11.9002L12.1485 8.11649C12.153 8.09275 12.1522 8.06831 12.1462 8.0449C12.1402 8.02149 12.1291 7.9997 12.1137 7.98107C12.0983 7.96245 12.079 7.94745 12.0571 7.93715C12.0353 7.92685 12.0114 7.92151 11.9872 7.92149H10.7872C10.7491 7.92148 10.7122 7.93472 10.6828 7.95894C10.6534 7.98315 10.6333 8.01685 10.626 8.05424L10.0942 10.7887C10.0533 10.4964 9.92913 10.222 9.73649 9.99824C9.52202 9.78345 9.26327 9.61802 8.9783 9.51349C8.69333 9.40895 8.38899 9.36783 8.08649 9.39299H5.77499C5.73689 9.39298 5.69997 9.40622 5.67055 9.43044C5.64113 9.45466 5.62105 9.48835 5.61374 9.52574L4.53824 15.0607C4.53372 15.0845 4.53449 15.1089 4.5405 15.1323C4.54651 15.1557 4.55761 15.1775 4.57301 15.1962C4.58841 15.2148 4.60773 15.2298 4.6296 15.2401C4.65146 15.2504 4.67533 15.2557 4.69949 15.2557H5.90174C5.93985 15.2558 5.97677 15.2425 6.00619 15.2183C6.0356 15.1941 6.05569 15.1604 6.06299 15.123L6.32324 13.7842H7.22324C7.62062 13.7949 8.01726 13.7443 8.39924 13.6342C8.72132 13.5277 9.01585 13.3512 9.26174 13.1175C9.46325 12.9339 9.63526 12.7204 9.77174 12.4845L9.55649 13.5907C9.55197 13.6145 9.55274 13.6389 9.55875 13.6623C9.56476 13.6857 9.57586 13.7075 9.59126 13.7262C9.60666 13.7448 9.62598 13.7598 9.64785 13.7701C9.66971 13.7804 9.69358 13.7857 9.71774 13.7857H10.9177C10.9558 13.7858 10.9928 13.7725 11.0222 13.7483C11.0516 13.7241 11.0717 13.6904 11.079 13.653L11.6692 10.6147H12.4897C12.8392 10.6147 12.9397 10.6845 12.9697 10.7145C12.9997 10.7445 13.0447 10.8382 12.9885 11.1412L12.5122 13.59C12.5077 13.6137 12.5085 13.6382 12.5145 13.6616C12.5205 13.685 12.5316 13.7068 12.547 13.7254C12.5624 13.744 12.5817 13.759 12.6036 13.7693C12.6255 13.7796 12.6493 13.785 12.6735 13.785H13.8885C13.9259 13.7835 13.9616 13.7694 13.9899 13.7448C14.0181 13.7203 14.0371 13.6868 14.0437 13.65ZM8.49749 11.5245C8.46081 11.8394 8.31135 12.1303 8.07674 12.3435C7.78205 12.5268 7.4365 12.6111 7.09049 12.5842H6.55649L6.94274 10.596H7.63349C8.14124 10.596 8.34524 10.7047 8.42774 10.7955C8.49068 10.905 8.52946 11.0267 8.54149 11.1524C8.55352 11.2782 8.53852 11.405 8.49749 11.5245Z" fill="white"/>
<path d="M19.1595 9.999C18.945 9.78421 18.6863 9.61878 18.4013 9.51424C18.1163 9.40971 17.812 9.36859 17.5095 9.39375H15.1913C15.1531 9.39374 15.1162 9.40697 15.0868 9.43119C15.0574 9.45541 15.0373 9.4891 15.03 9.5265L13.9545 15.0615C13.95 15.0852 13.9507 15.1097 13.9568 15.1331C13.9628 15.1565 13.9739 15.1783 13.9893 15.1969C14.0047 15.2155 14.024 15.2305 14.0459 15.2408C14.0677 15.2511 14.0916 15.2565 14.1158 15.2565H15.3218C15.3599 15.2565 15.3968 15.2433 15.4262 15.2191C15.4556 15.1948 15.4757 15.1611 15.483 15.1237L15.7433 13.785H16.6433C17.0406 13.7956 17.4373 13.745 17.8193 13.635C18.1413 13.5284 18.4359 13.352 18.6818 13.1182C19.1029 12.7387 19.3866 12.2306 19.4888 11.673C19.5694 11.3877 19.5817 11.0875 19.5245 10.7966C19.4673 10.5057 19.3422 10.2324 19.1595 9.999ZM17.9093 11.5245C17.8726 11.8394 17.7231 12.1303 17.4885 12.3435C17.1931 12.527 16.8467 12.6111 16.5 12.5835H15.9675L16.3538 10.5952H17.0445C17.5523 10.5952 17.7563 10.704 17.8388 10.7947C17.9019 10.9043 17.9409 11.0261 17.953 11.152C17.9652 11.2779 17.9503 11.4049 17.9093 11.5245Z" fill="white"/>
<path d="M7.63349 10.431C7.79531 10.4106 7.95956 10.4225 8.11675 10.4661C8.27393 10.5096 8.42093 10.5838 8.54924 10.6845C8.63203 10.812 8.68483 10.9566 8.70367 11.1074C8.72251 11.2582 8.70689 11.4113 8.65799 11.5553C8.61512 11.9096 8.44381 12.236 8.17649 12.4725C7.85409 12.6802 7.47299 12.7775 7.09049 12.75H6.35699L6.80699 10.4333L7.63349 10.431ZM4.69574 15.093H5.90174L6.18749 13.6215H7.22024C7.60037 13.6319 7.97983 13.5836 8.34524 13.4783C8.64513 13.3792 8.91924 13.2148 9.14774 12.9968C9.54325 12.641 9.80965 12.1641 9.90524 11.6408C9.98092 11.3805 9.99422 11.1061 9.94405 10.8397C9.89389 10.5734 9.78167 10.3226 9.61649 10.1078C9.41732 9.91075 9.17758 9.75957 8.91398 9.66475C8.65037 9.56993 8.36926 9.53376 8.09024 9.55875H5.77499L4.69574 15.093Z" fill="#000004"/>
<path d="M10.7902 8.0865H11.9902L11.7 9.558H12.7657C13.2552 9.50677 13.747 9.63118 14.1532 9.909C14.2877 10.0618 14.3796 10.2473 14.4198 10.4469C14.4599 10.6465 14.4469 10.8531 14.382 11.046L13.8817 13.6215H12.6675L13.1437 11.1728C13.1769 11.0793 13.1887 10.9796 13.1784 10.881C13.168 10.7823 13.1357 10.6873 13.0837 10.6028C12.9101 10.4783 12.6955 10.4247 12.4837 10.4528H11.5275L10.911 13.6238H9.711L10.7902 8.0865Z" fill="#000004"/>
<path d="M17.0452 10.431C17.2071 10.4106 17.3713 10.4225 17.5285 10.4661C17.6857 10.5096 17.8327 10.5838 17.961 10.6845C18.0438 10.812 18.0966 10.9566 18.1154 11.1074C18.1343 11.2582 18.1186 11.4113 18.0697 11.5553C18.0269 11.9096 17.8556 12.236 17.5882 12.4725C17.2652 12.6806 16.8832 12.778 16.5 12.75H15.7665L16.2165 10.4333L17.0452 10.431ZM14.1075 15.093H15.3135L15.5992 13.6215H16.632C17.0121 13.6319 17.3916 13.5836 17.757 13.4783C18.0569 13.3792 18.331 13.2148 18.5595 12.9968C18.955 12.641 19.2214 12.1641 19.317 11.6408C19.3927 11.3805 19.406 11.1061 19.3558 10.8397C19.3056 10.5734 19.1934 10.3226 19.0282 10.1078C18.8291 9.91075 18.5893 9.75957 18.3257 9.66475C18.0621 9.56993 17.781 9.53376 17.502 9.55875H15.183L14.1075 15.093Z" fill="#000004"/>
<defs>
<radialGradient id="paint0_radial_52_2" cx="0" cy="0" r="1" gradientUnits="userSpaceOnUse" gradientTransform="translate(7.8045 8.41876) scale(13.788)">
<stop stop-color="white"/>
<stop offset="0.5" stop-color="#4C6B96"/>
<stop offset="1" stop-color="#231F20"/>
</radialGradient>
</defs>
</svg>
