<svg width="24" height="24" viewBox="0 0 24 24" fill="none" xmlns="http://www.w3.org/2000/svg">
<path d="M19.8718 4.71289C19.8553 4.59281 19.7502 4.52645 19.6633 4.51916C19.5766 4.51187 17.7414 4.37588 17.7414 4.37588C17.7414 4.37588 16.4668 3.11053 16.327 2.97051C16.187 2.83049 15.9137 2.87307 15.8076 2.90434C15.7919 2.90894 15.5291 2.99007 15.0943 3.12453C14.6685 1.89946 13.9172 0.773551 12.5952 0.773551C12.5588 0.773551 12.5212 0.775086 12.4836 0.777195C12.1076 0.280031 11.6419 0.0640564 11.2397 0.0640564C8.16044 0.0640564 6.68928 3.91343 6.22798 5.86968C5.03149 6.24044 4.1814 6.50398 4.07284 6.53812C3.40497 6.74758 3.38387 6.76868 3.29621 7.39799C3.23004 7.87444 1.48248 21.3892 1.48248 21.3892L15.0998 23.9406L22.4783 22.3444C22.4783 22.3444 19.8881 4.83296 19.8718 4.71289ZM14.3416 3.35739C13.9996 3.46326 13.6108 3.58353 13.1894 3.71395C13.1898 3.63282 13.1902 3.55284 13.1902 3.46556C13.1902 2.70409 13.0845 2.09107 12.915 1.60504C13.5961 1.69058 14.0497 2.46548 14.3416 3.35739ZM12.07 1.75599C12.2594 2.23052 12.3825 2.91143 12.3825 3.83038C12.3825 3.87737 12.3821 3.92034 12.3817 3.96388C11.6323 4.19597 10.8181 4.448 10.002 4.7008C10.4602 2.93234 11.3191 2.07822 12.07 1.75599ZM11.1551 0.889978C11.288 0.889978 11.4219 0.935053 11.5501 1.02328C10.5632 1.48765 9.50539 2.65729 9.05867 4.99292C8.40576 5.19509 7.76762 5.39265 7.17762 5.57544C7.70087 3.79394 8.9434 0.889978 11.1551 0.889978Z" fill="#95BF46"/>
<path d="M19.6633 4.51917C19.5766 4.51188 17.7414 4.37589 17.7414 4.37589C17.7414 4.37589 16.4668 3.11053 16.327 2.97051C16.2746 2.91834 16.2041 2.89168 16.1302 2.88017L15.1006 23.9404L22.4783 22.3444C22.4783 22.3444 19.8881 4.83296 19.8718 4.71289C19.8553 4.59282 19.7502 4.52645 19.6633 4.51917Z" fill="#5E8E3E"/>
<path d="M12.5952 8.59603L11.6855 11.3022C11.6855 11.3022 10.8883 10.8768 9.91126 10.8768C8.47885 10.8768 8.40673 11.7758 8.40673 12.0023C8.40673 13.2383 11.6287 13.7119 11.6287 16.607C11.6287 18.8848 10.184 20.3515 8.23602 20.3515C5.89847 20.3515 4.70312 18.8966 4.70312 18.8966L5.32899 16.8288C5.32899 16.8288 6.55771 17.8837 7.59462 17.8837C8.27208 17.8837 8.54771 17.3503 8.54771 16.9605C8.54771 15.3482 5.90441 15.2763 5.90441 12.627C5.90441 10.3973 7.50485 8.23946 10.7355 8.23946C11.9803 8.23946 12.5952 8.59603 12.5952 8.59603Z" fill="white"/>
</svg>
